<svg width="25" height="24" viewBox="0 0 25 24" fill="none" xmlns="http://www.w3.org/2000/svg">
<path fill-rule="evenodd" clip-rule="evenodd" d="M5.54714 12C5.54714 11.2205 5.67659 10.4733 5.90765 9.77235L1.86337 6.68399C1.07516 8.28435 0.631073 10.0876 0.631073 12C0.631073 13.9107 1.07461 15.7129 1.86173 17.3122L5.90382 14.2178C5.67495 13.5202 5.54714 12.7756 5.54714 12Z" fill="#FBBC05"/>
<path fill-rule="evenodd" clip-rule="evenodd" d="M12.6481 4.90909C14.3414 4.90909 15.8709 5.50909 17.0726 6.49091L20.5684 3C18.4382 1.14545 15.707 0 12.6481 0C7.8992 0 3.81777 2.71582 1.86337 6.684L5.90765 9.77236C6.83951 6.94364 9.49583 4.90909 12.6481 4.90909Z" fill="#EB4335"/>
<path fill-rule="evenodd" clip-rule="evenodd" d="M12.6481 19.0909C9.49583 19.0909 6.83951 17.0564 5.90765 14.2276L1.86337 17.3154C3.81777 21.2842 7.8992 24 12.6481 24C15.5792 24 18.3775 22.9593 20.4778 21.0093L16.6389 18.0414C15.5557 18.7238 14.1918 19.0909 12.6481 19.0909Z" fill="#34A853"/>
<path fill-rule="evenodd" clip-rule="evenodd" d="M24.1189 12C24.1189 11.2909 24.0097 10.5273 23.8458 9.81818H12.6481V14.4545H19.0936C18.7713 16.0353 17.8941 17.2505 16.6389 18.0414L20.4778 21.0093C22.684 18.9616 24.1189 15.9114 24.1189 12Z" fill="#4285F4"/>
</svg>
