<svg width="30" height="24" viewBox="0 0 30 24" fill="none" xmlns="http://www.w3.org/2000/svg">
<path fill-rule="evenodd" clip-rule="evenodd" d="M29.025 2.84117C27.9668 3.32308 26.8274 3.64897 25.6323 3.79459C26.8528 3.04572 27.7893 1.85829 28.2305 0.443774C27.0878 1.13717 25.825 1.6416 24.476 1.91202C23.4009 0.734993 21.8643 0 20.1637 0C16.9029 0 14.2573 2.71289 14.2573 6.0585C14.2573 6.53348 14.308 6.99459 14.4095 7.43836C9.49875 7.18527 5.14587 4.77573 2.22986 1.10596C1.72104 2.0039 1.43028 3.04572 1.43028 4.15515C1.43028 6.25612 2.47329 8.11095 4.05892 9.19784C3.09199 9.16837 2.17915 8.89275 1.38126 8.44204V8.51657C1.38126 11.4531 3.41824 13.9025 6.12294 14.4572C5.62764 14.5993 5.1053 14.6704 4.56605 14.6704C4.1857 14.6704 3.81381 14.634 3.45374 14.5629C4.20599 16.969 6.38665 18.7216 8.97302 18.7684C6.95125 20.3944 4.40207 21.3634 1.63483 21.3634C1.15812 21.3634 0.686496 21.3356 0.225006 21.2802C2.84011 22.9963 5.94714 24 9.28237 24C20.1519 24 26.0938 14.7692 26.0938 6.7623C26.0938 6.49881 26.0887 6.23532 26.0786 5.97703C27.2331 5.12243 28.2356 4.05634 29.025 2.84117Z" fill="#00AAEC"/>
</svg>
